<mxfile host="app.diagrams.net" modified="2024-10-04T17:22:17.003Z" agent="Mozilla/5.0 (Windows NT 10.0; Win64; x64) AppleWebKit/537.36 (KHTML, like Gecko) Chrome/129.0.0.0 Safari/537.36" version="24.4.0" etag="dIiPayTcatqnVTaze2-F" type="github">
  <diagram name="PÃ¡gina-1" id="j3C4sqJlCUaCnkvAZmxx">
    <mxGraphModel>
      <root>
        <mxCell id="0" />
        <mxCell id="1" parent="0" />
      </root>
    </mxGraphModel>
  </diagram>
</mxfile>
